Coordinates
version=1
nRows=18
nColumns=38
inDegrees=yes

Units are S.I. units (second, meters, Newtons, ...)
Angles are in degrees.

endheader
time	pelvis_tilt	pelvis_list	pelvis_rotation	pelvis_tx	pelvis_ty	pelvis_tz	hip_flexion_r	hip_adduction_r	hip_rotation_r	knee_angle_r	ankle_angle_r	subtalar_angle_r	mtp_angle_r	hip_flexion_l	hip_adduction_l	hip_rotation_l	knee_angle_l	ankle_angle_l	subtalar_angle_l	mtp_angle_l	lumbar_extension	lumbar_bending	lumbar_rotation	arm_flex_r	arm_add_r	arm_rot_r	elbow_flex_r	pro_sup_r	wrist_flex_r	wrist_dev_r	arm_flex_l	arm_add_l	arm_rot_l	elbow_flex_l	pro_sup_l	wrist_flex_l	wrist_dev_l
      2.95000000	     -3.38439259	     -1.13876492	     -2.21387202	      0.00501215	      0.83894246	      0.00289283	      4.23851555	     -0.01387842	     -2.43094000	     -8.54256740	      3.58371095	      0.00000000	      0.00000000	      3.26095469	     -1.18118228	     -2.52318395	     -6.02023291	      2.68108110	      0.00000000	      0.00000000	      0.18998071	      0.95354808	      2.23113964	      0.00000000	      0.00000000	      0.00000000	    176.84839640	    116.09557892	      0.00000000	      0.00000000	      0.00000000	      0.00000000	      0.00000000	    176.84839640	     67.49641120	      0.00000000	      0.00000000
      2.96000000	     -3.38440586	     -1.13864148	     -2.21557291	      0.00498541	      0.83893566	      0.00287271	      4.23866290	     -0.01492801	     -2.43034185	     -8.53833259	      3.58376734	      0.00000000	      0.00000000	      3.25888770	     -1.17998719	     -2.52502800	     -6.01408314	      2.67567647	      0.00000000	      0.00000000	      0.18957815	      0.94680238	      2.23101920	      0.00000000	      0.00000000	      0.00000000	    177.36168049	    116.09010683	      0.00000000	      0.00000000	      0.00000000	      0.00000000	      0.00000000	    177.36168049	     67.25493683	      0.00000000	      0.00000000
      2.97000000	     -3.38437136	     -1.13910878	     -2.21808068	      0.00495166	      0.83894506	      0.00285811	      4.23959816	     -0.01556791	     -2.42844206	     -8.53554721	      3.58540594	      0.00000000	      0.00000000	      3.25802886	     -1.17954521	     -2.52740276	     -6.00901062	      2.67120497	      0.00000000	      0.00000000	      0.18968443	      0.94060931	      2.23118085	      0.00000000	      0.00000000	      0.00000000	    177.87508270	    116.08461639	      0.00000000	      0.00000000	      0.00000000	      0.00000000	      0.00000000	    177.87508270	     67.01345035	      0.00000000	      0.00000000
      2.98000000	     -3.38409799	     -1.14016351	     -2.22072560	      0.00491640	      0.83896596	      0.00284540	      4.24109563	     -0.01600351	     -2.42536638	     -8.53395616	      3.58786328	      0.00000000	      0.00000000	      3.25839772	     -1.17965381	     -2.53003261	     -6.00523832	      2.66779334	      0.00000000	      0.00000000	      0.19022397	      0.93481136	      2.23181839	      0.00000000	      0.00000000	      0.00000000	    178.38859508	    116.07910759	      0.00000000	      0.00000000	      0.00000000	      0.00000000	      0.00000000	    178.38859508	     66.77195539	      0.00000000	      0.00000000
      2.99000000	     -3.38392211	     -1.14135408	     -2.22275418	      0.00488303	      0.83898466	      0.00282852	      4.24274480	     -0.01649067	     -2.42183863	     -8.53286616	      3.58987971	      0.00000000	      0.00000000	      3.25940161	     -1.18007481	     -2.53262915	     -6.00279948	      2.66524884	      0.00000000	      0.00000000	      0.19091751	      0.92918488	      2.23323150	      0.00000000	      0.00000000	      0.00000000	    178.90220976	    116.07358043	      0.00000000	      0.00000000	      0.00000000	      0.00000000	      0.00000000	    178.90220976	     66.53045554	      0.00000000	      0.00000000
      3.00000000	     -3.38408263	     -1.14237489	     -2.22380758	      0.00485594	      0.83898960	      0.00280943	      4.24404933	     -0.01719751	     -2.41899502	     -8.53143943	      3.59013037	      0.00000000	      0.00000000	      3.26047134	     -1.18035318	     -2.53497715	     -6.00144512	      2.66323348	      0.00000000	      0.00000000	      0.19143272	      0.92355050	      2.23573825	      0.00000000	      0.00000000	      0.00000000	    179.41591883	    116.06803491	      0.00000000	      0.00000000	      0.00000000	      0.00000000	      0.00000000	    179.41591883	     66.28895437	      0.00000000	      0.00000000
      3.01000000	     -3.38441980	     -1.14313021	     -2.22411446	      0.00483970	      0.83898179	      0.00279325	      4.24468239	     -0.01817805	     -2.41802715	     -8.52895449	      3.58767026	      0.00000000	      0.00000000	      3.26133379	     -1.18005089	     -2.53702345	     -6.00071240	      2.66147239	      0.00000000	      0.00000000	      0.19151698	      0.91785976	      2.23959268	      0.00000000	      0.00000000	      0.00000000	    179.92971445	    116.06247103	      0.00000000	      0.00000000	      0.00000000	      0.00000000	      0.00000000	    179.92971445	     66.04745545	      0.00000000	      0.00000000
      3.02000000	     -3.38462332	     -1.14346291	     -2.22437958	      0.00483158	      0.83896896	      0.00277800	      4.24458592	     -0.01939725	     -2.41980091	     -8.52504463	      3.58221254	      0.00000000	      0.00000000	      3.26191403	     -1.17905249	     -2.53894736	     -6.00008196	      2.65989224	      0.00000000	      0.00000000	      0.19108145	      0.91217346	      2.24491963	      0.00000000	      0.00000000	      0.00000000	    180.44358878	    116.05688879	      0.00000000	      0.00000000	      0.00000000	      0.00000000	      0.00000000	    180.44358878	     65.80596235	      0.00000000	      0.00000000
      3.03000000	     -3.38449178	     -1.14329270	     -2.22543043	      0.00481957	      0.83895784	      0.00275822	      4.24388919	     -0.02088400	     -2.42452061	     -8.51990183	      3.57417149	      0.00000000	      0.00000000	      3.26232565	     -1.17746573	     -2.54112954	     -5.99911197	      2.65862933	      0.00000000	      0.00000000	      0.19022444	      0.90653019	      2.25165693	      0.00000000	      0.00000000	      0.00000000	    180.95753402	    116.05128819	      0.00000000	      0.00000000	      0.00000000	      0.00000000	      0.00000000	    180.95753402	     65.56447861	      0.00000000	      0.00000000
      3.04000000	     -3.38402096	     -1.14273233	     -2.22777310	      0.00479280	      0.83895423	      0.00273246	      4.24292057	     -0.02282808	     -2.43153628	     -8.51428180	      3.56451368	      0.00000000	      0.00000000	      3.26280627	     -1.17543540	     -2.54398990	     -5.99768539	      2.65790906	      0.00000000	      0.00000000	      0.18916579	      0.90082462	      2.25953197	      0.00000000	      0.00000000	      0.00000000	    181.47154238	    116.04566924	      0.00000000	      0.00000000	      0.00000000	      0.00000000	      0.00000000	    181.47154238	     65.32300777	      0.00000000	      0.00000000
      3.05000000	     -3.38332604	     -1.14189518	     -2.23133353	      0.00475457	      0.83896113	      0.00270458	      4.24227076	     -0.02545076	     -2.43943035	     -8.50927873	      3.55448807	      0.00000000	      0.00000000	      3.26359868	     -1.17306452	     -2.54777944	     -5.99622750	      2.65787289	      0.00000000	      0.00000000	      0.18813459	      0.89482316	      2.26811421	      0.00000000	      0.00000000	      0.00000000	    181.98560609	    116.04003193	      0.00000000	      0.00000000	      0.00000000	      0.00000000	      0.00000000	    181.98560609	     65.08155333	      0.00000000	      0.00000000
      3.06000000	     -3.38263501	     -1.14076796	     -2.23552975	      0.00471866	      0.83897467	      0.00268059	      4.24262785	     -0.02882965	     -2.44642943	     -8.50599469	      3.54531580	      0.00000000	      0.00000000	      3.26488798	     -1.17039905	     -2.55244527	     -5.99562298	      2.65846242	      0.00000000	      0.00000000	      0.18727723	      0.88832378	      2.27692336	      0.00000000	      0.00000000	      0.00000000	    182.49971741	    116.03437625	      0.00000000	      0.00000000	      0.00000000	      0.00000000	      0.00000000	    182.49971741	     64.84011882	      0.00000000	      0.00000000
      3.07000000	     -3.38232195	     -1.13930818	     -2.23961539	      0.00469285	      0.83898498	      0.00266214	      4.24450544	     -0.03279108	     -2.45100269	     -8.50517663	      3.53794359	      0.00000000	      0.00000000	      3.26677364	     -1.16749818	     -2.55762415	     -5.99678383	      2.65942641	      0.00000000	      0.00000000	      0.18662662	      0.88133820	      2.28552225	      0.00000000	      0.00000000	      0.00000000	    183.01386863	    116.02870222	      0.00000000	      0.00000000	      0.00000000	      0.00000000	      0.00000000	    183.01386863	     64.59870774	      0.00000000	      0.00000000
      3.08000000	     -3.38264762	     -1.13770573	     -2.24311038	      0.00467511	      0.83898365	      0.00264540	      4.24807349	     -0.03687007	     -2.45236374	     -8.50696494	      3.53292608	      0.00000000	      0.00000000	      3.26942168	     -1.16448611	     -2.56274764	     -6.00002936	      2.66043433	      0.00000000	      0.00000000	      0.18615336	      0.87415196	      2.29356098	      0.00000000	      0.00000000	      0.00000000	    183.52805204	    116.02300984	      0.00000000	      0.00000000	      0.00000000	      0.00000000	      0.00000000	    183.52805204	     64.35732356	      0.00000000	      0.00000000
      3.09000000	     -3.38352372	     -1.13639828	     -2.24601135	      0.00466401	      0.83897202	      0.00262634	      4.25314831	     -0.04038100	     -2.45064781	     -8.51086680	      3.53042733	      0.00000000	      0.00000000	      3.27311334	     -1.16161350	     -2.56722952	     -6.00477890	      2.66121799	      0.00000000	      0.00000000	      0.18585350	      0.86719113	      2.30079720	      0.00000000	      0.00000000	      0.00000000	    184.04225997	    116.01729909	      0.00000000	      0.00000000	      0.00000000	      0.00000000	      0.00000000	    184.04225997	     64.11596976	      0.00000000	      0.00000000
      3.10000000	     -3.38478904	     -1.13577019	     -2.24860407	      0.00465793	      0.83896082	      0.00260412	      4.25927781	     -0.04272907	     -2.44672408	     -8.51594877	      3.53029305	      0.00000000	      0.00000000	      3.27786196	     -1.15930399	     -2.57069030	     -6.00988914	      2.66165096	      0.00000000	      0.00000000	      0.18578545	      0.86078396	      2.30712252	      0.00000000	      0.00000000	      0.00000000	    184.55648477	    116.01156998	      0.00000000	      0.00000000	      0.00000000	      0.00000000	      0.00000000	    184.55648477	     63.87464981	      0.00000000	      0.00000000
      3.11000000	     -3.38646124	     -1.13593590	     -2.25110686	      0.00464800	      0.83895866	      0.00258011	      4.26586473	     -0.04378311	     -2.44178946	     -8.52115977	      3.53214007	      0.00000000	      0.00000000	      3.28315655	     -1.15797183	     -2.57309458	     -6.01427186	      2.66171416	      0.00000000	      0.00000000	      0.18601948	      0.85499169	      2.31258287	      0.00000000	      0.00000000	      0.00000000	    185.07071880	    116.00582252	      0.00000000	      0.00000000	      0.00000000	      0.00000000	      0.00000000	    185.07071880	     63.63336715	      0.00000000	      0.00000000
      3.12000000	     -3.38849541	     -1.13672362	     -2.25349240	      0.00462604	      0.83896446	      0.00255466	      4.27232284	     -0.04390318	     -2.43696314	     -8.52565537	      3.53541441	      0.00000000	      0.00000000	      3.28827500	     -1.15772160	     -2.57469356	     -6.01730970	      2.66137597	      0.00000000	      0.00000000	      0.18652222	      0.84959355	      2.31734441	      0.00000000	      0.00000000	      0.00000000	    185.58495446	    116.00005669	      0.00000000	      0.00000000	      0.00000000	      0.00000000	      0.00000000	    185.58495446	     63.39212523	      0.00000000	      0.00000000
